<svg xmlns="http://www.w3.org/2000/svg" xml:space="preserve" width="2000" height="61" data-id="lg_EATTf6BmLTdhMcDLz9" data-version="1" viewBox="0 0 2000 61"><g data-padding="20"><g fill="#675345"><path d="M872.16 51.603h-7.6v-22.81h7.6Zm14.402-22.81L873.33 48.37V37.287l5.327-8.475Zm-5.927 10.749 6.288 12.061h-8.219l-2.577-5.307Zm15.058 12.061h-7.6v-22.81h7.6ZM902.6 33.35h-5.707v-4.556h8.684l4.566 4.556v6.84l-3.5 3.51-.238-.485-7.134.95.276.6h-2.654v-4.423h5.707Zm4.043 10.35 4.28 7.904h-8.114l-3.262-6.839h6.03Zm6.658 7.904v-4.86h2.283v-13.1H913.3v-4.85h12.166v4.85h-2.282v13.099h2.282v4.86Zm32.989 0h-3.063v-8.542h-9.864l-4.566-4.575V33.35l4.566-4.556h2.577v8.095h10.483l4.423 4.575v5.584Zm-3.063-18.7h-6.079v-4.11h9.123l3.947 3.976v2.416h-6.991Zm-14.43 14.144v-2.283h7.59v2.711h5.641v4.128h-9.407Zm40.103-9.284v-8.97h7.667v22.81h-7.61v-9.265h-5.64v-4.575Zm-6.782-8.97v22.81h-7.6v-22.81Zm34.396 22.81-.96-2.492h-7.458l1.579-4.518h4.119l-6.098-15.8h7.41l9.084 22.81Zm-6.278-12.717-4.176 12.717h-7.334l8.143-21.773Zm23.714 12.717h-7.6v-22.81h7.6Zm14.392-22.81L1015.11 48.37V37.287l5.327-8.475Zm-5.926 10.749 6.287 12.061h-8.209l-2.578-5.307Zm24.627 12.061h-3.054v-8.542h-9.873l-4.566-4.575V33.35l4.566-4.556h2.578v8.095h10.491l4.414 4.575v5.584Zm-3.054-18.7h-6.087v-4.11h9.122l3.957 3.976v2.416h-6.992Zm-14.44 14.144v-2.283h7.592v2.711h5.64v4.128h-9.398Zm47.571-18.254v18.254l-4.556 4.556h-5.86v-4.556h2.816V28.793Zm-14.42 0v18.254h2.796v4.556h-5.84l-4.566-4.556V28.793Zm23.571 0 7.886 22.81h-7.391l-8.247-22.81Zm5.394 12.08 3.68-12.08h7.63l-7.886 22.125Zm12.518 10.73v-4.86h2.282v-13.1h-2.282v-4.85h12.166v4.85h-2.283v13.099h2.283v4.86Zm33.32 0h-8.674v-4.556h5.63V33.349h-5.63v-4.556h8.675l4.575 4.556v13.698Zm-17.473 0v-22.81h7.59v22.81Zm39.932-13.84v-8.97h7.657v22.81h-7.61v-9.265h-5.63v-4.575Zm-6.792-8.97v22.81h-7.59v-22.81Zm34.377 22.81-.96-2.492h-7.458l1.58-4.518h4.127l-6.106-15.8h7.41l9.093 22.81Zm-6.268-12.717-4.176 12.717h-7.343l8.152-21.773ZM813.605 57.859l-.79-7.932c0-.725.929-.082 2.1-.082 1.161 0 2.107-.643 2.107.082l-.661 7.735c0 1.682-2.756.998-2.756.197m-3.372-25.82c-5.774-2.611-5.297-6.72-5.297-6.72-.732 1.45.818 14.106 6.84 14.106 2.693 0 4.957-4.468-1.537-7.387"/><path d="M810.233 23.096c-5.774-2.598-5.297-6.707-5.297-6.707-.732 1.445.818 14.1 6.84 14.1 2.693 0 4.957-4.468-1.537-7.393"/><path d="M810.233 14.428c-5.774-2.594-5.297-6.708-5.297-6.708-.732 1.45.818 14.1 6.84 14.1 2.693 0 4.957-4.468-1.537-7.392m8.001 24.997c6.023 0 7.567-12.65 6.847-14.1 0 0 .464 4.108-5.314 6.713-6.488 2.919-4.236 7.387-1.532 7.387m-8.008 1.77c-5.774-2.612-5.297-6.72-5.297-6.72-.732 1.45.818 14.106 6.84 14.106 2.693 0 4.957-4.468-1.537-7.387"/><path d="M818.24 48.581c6.023 0 7.567-12.649 6.847-14.1 0 0 .464 4.108-5.314 6.713-6.488 2.92-4.236 7.387-1.532 7.387m0-18.092c6.022 0 7.566-12.66 6.846-14.106 0 0 .464 4.109-5.314 6.708-6.488 2.925-4.236 7.392-1.532 7.392"/><path d="M818.24 21.814c6.023 0 7.567-12.65 6.847-14.1 0 0 .464 4.12-5.314 6.714-6.488 2.93-4.236 7.386-1.532 7.386"/><path d="M815.427 15.101c6.382 0-.349-13.613-.349-13.613-.812 1.277-6.034 13.612.349 13.612m17.256 43.815 3.852-6.743c.308-.65-.811-.475-1.868-.957-1.067-.492-1.636-1.474-1.944-.812l-2.628 7.52c-.336.73 1.874 2.518 2.588.987m5.227-25.815c-4.125-4.8-1.972-8.327-1.972-8.327-1.277 1.004-5.194 13.136.256 15.672 2.442 1.137 6.382-1.962 1.716-7.345"/><path d="M841.683 24.983c-4.132-4.794-1.985-8.322-1.985-8.322-1.271 1.005-5.199 13.137.261 15.68 2.449 1.131 6.383-1.957 1.723-7.358"/><path d="M845.332 17.126c-4.143-4.787-1.99-8.327-1.99-8.327-1.27 1.01-5.194 13.131.262 15.673 2.448 1.132 6.382-1.956 1.722-7.347m-3.255 26.054c5.454 2.524 12.19-8.291 12.139-9.922 0 0-1.305 3.929-7.648 3.858-7.108-.076-6.94 4.915-4.49 6.063m-8.014-1.781c-4.143-4.798-1.99-8.32-1.99-8.32-1.27 1.004-5.194 13.131.266 15.66 2.45 1.138 6.377-1.954 1.718-7.34"/><path d="M838.207 51.47c5.454 2.542 12.185-8.285 12.144-9.904 0 0-1.306 3.922-7.647 3.853-7.114-.077-6.94 4.92-4.497 6.051m7.63-16.403c5.454 2.535 12.185-8.297 12.139-9.911 0 0-1.311 3.917-7.648 3.853-7.12-.075-6.945 4.932-4.497 6.058"/><path d="M849.487 27.193c5.454 2.542 12.185-8.28 12.133-9.905 0 0-1.305 3.94-7.642 3.853-7.108-.076-6.935 4.927-4.491 6.052"/><path d="M849.754 19.917c5.784 2.692 5.42-12.493 5.42-12.493-1.277.83-11.206 9.807-5.42 12.493"/></g><path fill="transparent" stroke="transparent" d="M795 0h410v61H795z"/></g></svg>